<svg width="166" height="56" viewBox="0 0 166 56" fill="none" xmlns="http://www.w3.org/2000/svg">
<g clip-path="url(#clip0_226_114474)">
<path d="M152.367 0.522641H13.3788C12.8722 0.522641 12.3716 0.522641 11.8664 0.525404C11.4434 0.528167 11.0238 0.536194 10.5967 0.54295C9.66903 0.553867 8.74349 0.635484 7.82818 0.787091C6.91415 0.941998 6.02876 1.23404 5.20194 1.65335C4.37614 2.0762 3.62158 2.62565 2.96563 3.28177C2.30624 3.93605 1.75659 4.6923 1.33782 5.52145C0.917882 6.34896 0.626699 7.2357 0.474323 8.15106C0.320498 9.06527 0.237723 9.99001 0.226742 10.917C0.21392 11.3406 0.212567 11.7656 0.205811 12.1893V44.1237C0.212567 44.5527 0.21392 44.9682 0.226742 45.3974C0.237726 46.3243 0.320501 47.249 0.474323 48.1632C0.626278 49.0791 0.917479 49.9663 1.33782 50.7941C1.7564 51.6206 2.30613 52.3738 2.96563 53.0244C3.61909 53.6835 4.37414 54.2333 5.20194 54.6529C6.02875 55.0733 6.91405 55.3671 7.82818 55.5244C8.74365 55.6748 9.66909 55.7565 10.5967 55.7687C11.0238 55.7781 11.4434 55.7835 11.8664 55.7835C12.3716 55.7862 12.8722 55.7862 13.3788 55.7862H152.367C152.863 55.7862 153.368 55.7862 153.865 55.7835C154.285 55.7835 154.717 55.7781 155.138 55.7687C156.064 55.7571 156.988 55.6755 157.901 55.5244C158.818 55.366 159.707 55.0723 160.538 54.6529C161.365 54.2331 162.119 53.6832 162.772 53.0244C163.43 52.3712 163.981 51.6186 164.405 50.7941C164.822 49.9657 165.11 49.0785 165.26 48.1632C165.414 47.2489 165.5 46.3244 165.516 45.3974C165.522 44.9682 165.522 44.5527 165.522 44.1237C165.532 43.6217 165.532 43.1226 165.532 42.6125V13.6977C165.532 13.1917 165.532 12.6898 165.522 12.1893C165.522 11.7656 165.522 11.3406 165.516 10.9169C165.5 9.98988 165.414 9.06534 165.26 8.15101C165.11 7.23617 164.821 6.3495 164.405 5.5214C163.552 3.85945 162.199 2.50664 160.538 1.65322C159.707 1.23494 158.818 0.942976 157.901 0.786966C156.988 0.634691 156.064 0.553046 155.138 0.542756C154.717 0.536014 154.285 0.527918 153.865 0.525224C153.368 0.522461 152.863 0.522641 152.367 0.522641Z" fill="black"/>
<path d="M11.873 54.5777C11.4521 54.5777 11.0413 54.5724 10.6237 54.563C9.75848 54.5517 8.89533 54.4764 8.04127 54.3376C7.24491 54.2005 6.47345 53.9453 5.75234 53.5807C5.03784 53.219 4.38615 52.7447 3.82226 52.1761C3.2502 51.6142 2.77393 50.9625 2.41233 50.2467C2.04675 49.5264 1.79374 48.7542 1.66213 47.9572C1.51999 47.1007 1.4431 46.2348 1.43209 45.3667C1.42333 45.0753 1.41187 44.1052 1.41187 44.1052V12.1897C1.41187 12.1897 1.42408 11.2344 1.43216 10.9538C1.4427 10.0871 1.51915 9.22243 1.66086 8.36734C1.79271 7.56811 2.04591 6.79373 2.41169 6.071C2.77196 5.35577 3.24559 4.70354 3.8142 4.1396C4.38218 3.57031 5.03594 3.09363 5.75166 2.72697C6.47112 2.36345 7.24112 2.11012 8.03587 1.97547C8.89273 1.83533 9.75888 1.75956 10.6271 1.7488L11.8737 1.73193H153.858L155.119 1.74948C155.979 1.7597 156.838 1.83479 157.687 1.97411C158.49 2.11045 159.268 2.36555 159.995 2.73102C161.429 3.46995 162.596 4.63902 163.332 6.07437C163.692 6.79211 163.941 7.56018 164.071 8.3525C164.215 9.21461 164.295 10.086 164.311 10.9598C164.315 11.3511 164.315 11.7714 164.315 12.1897C164.326 12.7078 164.326 13.2009 164.326 13.6981V42.6129C164.326 43.1148 164.326 43.6046 164.315 44.0984C164.315 44.5477 164.315 44.9593 164.31 45.3828C164.294 46.2411 164.215 47.0969 164.074 47.9436C163.945 48.7464 163.693 49.5246 163.328 50.2509C162.964 50.9588 162.49 51.6049 161.925 52.1653C161.36 52.737 160.707 53.214 159.991 53.578C159.266 53.9455 158.489 54.2016 157.687 54.3376C156.833 54.4771 155.97 54.5524 155.104 54.563C154.7 54.5724 154.276 54.5777 153.864 54.5777L152.367 54.5805L11.873 54.5777Z" fill="white"/>
<path d="M34.7406 28.0012C34.7561 26.802 35.0746 25.6262 35.6666 24.5833C36.2585 23.5403 37.1047 22.664 38.1263 22.0359C37.4773 21.109 36.6211 20.3462 35.6257 19.808C34.6303 19.2699 33.5232 18.9713 32.3922 18.9359C29.9796 18.6827 27.6407 20.3796 26.4113 20.3796C25.1581 20.3796 23.2652 18.9611 21.2269 19.003C19.9085 19.0456 18.6236 19.429 17.4974 20.1158C16.3712 20.8026 15.4421 21.7695 14.8006 22.9222C12.0221 27.7329 14.0946 34.803 16.7563 38.6916C18.088 40.5958 19.6443 42.7227 21.6808 42.6473C23.6736 42.5647 24.4179 41.3766 26.8233 41.3766C29.2065 41.3766 29.9048 42.6473 31.9826 42.5994C34.121 42.5647 35.4682 40.6868 36.7532 38.7646C37.71 37.4078 38.4463 35.9083 38.9347 34.3215C37.6924 33.7961 36.6322 32.9166 35.8864 31.7926C35.1406 30.6687 34.7421 29.3501 34.7406 28.0012Z" fill="black"/>
<path d="M30.816 16.3788C31.9819 14.9791 32.5563 13.1801 32.4172 11.3638C30.6359 11.5509 28.9905 12.4022 27.8089 13.7481C27.2311 14.4057 26.7886 15.1706 26.5066 15.9993C26.2247 16.8279 26.1088 17.704 26.1657 18.5775C27.0566 18.5867 27.9381 18.3936 28.7436 18.0127C29.5491 17.6318 30.2577 17.0732 30.816 16.3788Z" fill="black"/>
<path d="M58.6496 38.0179H52.1099L50.5395 42.6551H47.7695L53.9637 25.4985H56.8416L63.0358 42.6551H60.2187L58.6496 38.0179ZM52.7872 35.878H57.971L55.4155 28.3521H55.344L52.7872 35.878Z" fill="black"/>
<path d="M76.4133 36.4018C76.4133 40.2889 74.3328 42.7862 71.1932 42.7862C70.3979 42.8279 69.6069 42.6446 68.9109 42.2576C68.2149 41.8706 67.6419 41.2954 67.2576 40.5978H67.1982V46.7934H64.6306V30.1469H67.1159V32.2273H67.1631C67.5651 31.5331 68.1477 30.9609 68.8491 30.5715C69.5504 30.1821 70.3442 29.9901 71.1459 30.016C74.3207 30.016 76.4133 32.5255 76.4133 36.4018ZM73.7742 36.4018C73.7742 33.8693 72.4655 32.2044 70.4687 32.2044C68.5069 32.2044 67.1874 33.9044 67.1874 36.4018C67.1874 38.9221 68.5069 40.61 70.4687 40.61C72.4655 40.61 73.7742 38.9572 73.7742 36.4018Z" fill="black"/>
<path d="M90.1813 36.4018C90.1813 40.2889 88.1001 42.7862 84.9605 42.7862C84.1652 42.8279 83.3743 42.6446 82.6782 42.2576C81.9822 41.8706 81.4092 41.2954 81.0249 40.5978H80.9655V46.7934H78.3979V30.1469H80.8832V32.2273H80.9304C81.3324 31.5331 81.9151 30.9609 82.6164 30.5715C83.3177 30.1821 84.1115 29.9901 84.9133 30.016C88.088 30.016 90.1813 32.5255 90.1813 36.4018ZM87.5416 36.4018C87.5416 33.8693 86.2328 32.2044 84.236 32.2044C82.2743 32.2044 80.9547 33.9044 80.9547 36.4018C80.9547 38.9221 82.2743 40.61 84.236 40.61C86.2328 40.61 87.5416 38.9572 87.5416 36.4018Z" fill="black"/>
<path d="M99.2792 37.8748C99.4694 39.5762 101.122 40.6932 103.381 40.6932C105.545 40.6932 107.102 39.5761 107.102 38.042C107.102 36.7104 106.163 35.913 103.939 35.3666L101.716 34.8309C98.5655 34.07 97.1029 32.5966 97.1029 30.2058C97.1029 27.2457 99.6826 25.2124 103.344 25.2124C106.971 25.2124 109.456 27.2457 109.54 30.2058H106.948C106.793 28.4937 105.378 27.4602 103.309 27.4602C101.241 27.4602 99.8256 28.5058 99.8256 30.0277C99.8256 31.2407 100.73 31.9544 102.941 32.5008L104.831 32.9649C108.351 33.7974 109.812 35.2114 109.812 37.7209C109.812 40.9306 107.257 42.941 103.19 42.941C99.3857 42.941 96.8168 40.9779 96.6509 37.8747L99.2792 37.8748Z" fill="black"/>
<path d="M115.356 27.1865V30.1467H117.735V32.1799H115.356V39.0757C115.356 40.147 115.832 40.6462 116.878 40.6462C117.16 40.6413 117.442 40.6215 117.723 40.5868V42.6079C117.253 42.6958 116.775 42.7356 116.297 42.7267C113.764 42.7267 112.776 41.7755 112.776 39.3496V32.1799H110.958V30.1467H112.776V27.1865H115.356Z" fill="black"/>
<path d="M119.111 36.4014C119.111 32.4658 121.429 29.9927 125.043 29.9927C128.67 29.9927 130.977 32.4657 130.977 36.4014C130.977 40.3479 128.682 42.8102 125.043 42.8102C121.406 42.8102 119.111 40.3478 119.111 36.4014ZM128.361 36.4014C128.361 33.7017 127.124 32.1082 125.043 32.1082C122.963 32.1082 121.726 33.7138 121.726 36.4014C121.726 39.112 122.963 40.6933 125.043 40.6933C127.124 40.6933 128.361 39.112 128.361 36.4014Z" fill="black"/>
<path d="M133.094 30.1467H135.543V32.2758H135.602C135.768 31.6108 136.158 31.0232 136.706 30.6116C137.254 30.2001 137.926 29.9897 138.611 30.0158C138.907 30.0148 139.202 30.0469 139.491 30.1116V32.5132C139.117 32.3991 138.728 32.3467 138.337 32.3581C137.964 32.343 137.592 32.4087 137.247 32.5509C136.902 32.693 136.592 32.9082 136.338 33.1816C136.083 33.455 135.891 33.7801 135.775 34.1348C135.658 34.4894 135.62 34.865 135.662 35.2359V42.6552H133.094L133.094 30.1467Z" fill="black"/>
<path d="M151.329 38.9811C150.983 41.2518 148.772 42.8102 145.943 42.8102C142.304 42.8102 140.045 40.3721 140.045 36.4608C140.045 32.5373 142.316 29.9927 145.835 29.9927C149.296 29.9927 151.472 32.37 151.472 36.1626V37.0423H142.637V37.1974C142.596 37.6578 142.654 38.1215 142.806 38.5579C142.959 38.9943 143.202 39.3932 143.52 39.7284C143.838 40.0635 144.224 40.327 144.652 40.5015C145.08 40.676 145.54 40.7575 146.002 40.7405C146.609 40.7973 147.218 40.6568 147.738 40.3398C148.259 40.0228 148.663 39.5463 148.891 38.9811L151.329 38.9811ZM142.649 35.2478H148.903C148.926 34.8339 148.863 34.4197 148.719 34.0312C148.574 33.6427 148.351 33.2882 148.063 32.9901C147.774 32.692 147.428 32.4567 147.045 32.2989C146.661 32.1411 146.249 32.0643 145.835 32.0732C145.417 32.0707 145.002 32.151 144.615 32.3095C144.228 32.468 143.877 32.7016 143.581 32.9968C143.284 33.2919 143.05 33.6428 142.89 34.0292C142.73 34.4155 142.648 34.8297 142.649 35.2478Z" fill="black"/>
<path d="M52.4665 12.5855C53.0048 12.5469 53.5449 12.6282 54.048 12.8236C54.551 13.019 55.0044 13.3236 55.3755 13.7155C55.7466 14.1073 56.0261 14.5767 56.1938 15.0896C56.3615 15.6026 56.4133 16.1463 56.3454 16.6817C56.3454 19.3154 54.922 20.8293 52.4665 20.8293H49.4888V12.5855H52.4665ZM50.7692 19.6634H52.3234C52.7081 19.6864 53.093 19.6233 53.4502 19.4788C53.8074 19.3343 54.1279 19.1119 54.3883 18.8279C54.6487 18.5439 54.8425 18.2054 54.9556 17.837C55.0687 17.4687 55.0983 17.0797 55.0421 16.6985C55.0942 16.3188 55.0617 15.9323 54.9468 15.5666C54.832 15.201 54.6377 14.8652 54.3779 14.5835C54.118 14.3017 53.7991 14.081 53.4439 13.9369C53.0888 13.7929 52.7061 13.7293 52.3234 13.7505H50.7692V19.6634Z" fill="black"/>
<path d="M57.7912 17.7157C57.7521 17.3069 57.7989 16.8944 57.9285 16.5047C58.0582 16.115 58.2678 15.7567 58.5441 15.4527C58.8203 15.1488 59.157 14.906 59.5326 14.7398C59.9082 14.5736 60.3144 14.4878 60.7251 14.4878C61.1358 14.4878 61.542 14.5736 61.9175 14.7398C62.2931 14.906 62.6298 15.1488 62.9061 15.4527C63.1823 15.7567 63.392 16.115 63.5216 16.5047C63.6513 16.8944 63.698 17.3069 63.6589 17.7157C63.6988 18.125 63.6526 18.538 63.5233 18.9284C63.394 19.3187 63.1844 19.6777 62.9081 19.9822C62.6318 20.2867 62.2948 20.5301 61.9189 20.6966C61.5429 20.8631 61.1363 20.9491 60.7251 20.9491C60.3139 20.9491 59.9072 20.8631 59.5313 20.6966C59.1553 20.5301 58.8183 20.2867 58.542 19.9822C58.2657 19.6777 58.0562 19.3187 57.9269 18.9284C57.7976 18.538 57.7514 18.125 57.7912 17.7157ZM62.3961 17.7157C62.3961 16.3672 61.7903 15.5786 60.7271 15.5786C59.6599 15.5786 59.0595 16.3672 59.0595 17.7157C59.0595 19.0751 59.6599 19.8576 60.7271 19.8576C61.7903 19.8576 62.3961 19.0696 62.3961 17.7157Z" fill="black"/>
<path d="M71.4592 20.8291H70.1856L68.8998 16.2472H68.8027L67.5223 20.8291H66.2607L64.5459 14.6079H65.7912L66.9057 19.3551H66.9974L68.2765 14.6079H69.4543L70.7334 19.3551H70.8305L71.9396 14.6079H73.1673L71.4592 20.8291Z" fill="black"/>
<path d="M74.6096 14.6081H75.7915V15.5964H75.8833C76.0389 15.2415 76.3014 14.9439 76.6342 14.7452C76.967 14.5466 77.3535 14.4567 77.7398 14.4881C78.0425 14.4653 78.3464 14.5109 78.6291 14.6216C78.9118 14.7323 79.1659 14.9051 79.3727 15.1273C79.5795 15.3495 79.7337 15.6154 79.8238 15.9053C79.9139 16.1952 79.9376 16.5017 79.8931 16.8019V20.8293H78.6653V17.1103C78.6653 16.1105 78.2309 15.6133 77.3229 15.6133C77.1174 15.6037 76.9122 15.6387 76.7215 15.7158C76.5307 15.793 76.3589 15.9104 76.2178 16.0602C76.0767 16.2099 75.9697 16.3884 75.904 16.5834C75.8384 16.7784 75.8156 16.9853 75.8374 17.1899V20.8293H74.6096L74.6096 14.6081Z" fill="black"/>
<path d="M81.8494 12.1792H83.0771V20.829H81.8494V12.1792Z" fill="black"/>
<path d="M84.7834 17.7158C84.7443 17.307 84.7911 16.8944 84.9208 16.5047C85.0505 16.115 85.2602 15.7567 85.5364 15.4528C85.8127 15.1488 86.1494 14.906 86.525 14.7398C86.9006 14.5736 87.3068 14.4878 87.7176 14.4878C88.1283 14.4878 88.5345 14.5736 88.9101 14.7398C89.2857 14.906 89.6225 15.1488 89.8987 15.4528C90.175 15.7567 90.3847 16.115 90.5144 16.5047C90.644 16.8944 90.6908 17.307 90.6518 17.7158C90.6916 18.1251 90.6453 18.5382 90.516 18.9285C90.3866 19.3188 90.177 19.6778 89.9007 19.9823C89.6244 20.2868 89.2874 20.5302 88.9114 20.6967C88.5354 20.8632 88.1288 20.9492 87.7176 20.9492C87.3064 20.9492 86.8997 20.8632 86.5237 20.6967C86.1477 20.5302 85.8108 20.2868 85.5344 19.9823C85.2581 19.6778 85.0485 19.3188 84.9192 18.9285C84.7898 18.5382 84.7436 18.1251 84.7834 17.7158ZM89.3882 17.7158C89.3882 16.3673 88.7824 15.5787 87.7193 15.5787C86.652 15.5787 86.0517 16.3673 86.0517 17.7158C86.0517 19.0752 86.6521 19.8577 87.7193 19.8577C88.7824 19.8577 89.3882 19.0698 89.3882 17.7158Z" fill="black"/>
<path d="M91.9448 19.0697C91.9448 17.9499 92.7786 17.3043 94.2587 17.2125L95.9439 17.1154V16.5784C95.9439 15.9213 95.5094 15.5503 94.6702 15.5503C93.9848 15.5503 93.5099 15.8019 93.3736 16.2418H92.185C92.3105 15.1732 93.3156 14.4878 94.7269 14.4878C96.2866 14.4878 97.1663 15.2642 97.1663 16.5784V20.8291H95.9844V19.9548H95.8872C95.69 20.2684 95.4132 20.5241 95.0849 20.6957C94.7566 20.8673 94.3886 20.9487 94.0186 20.9316C93.7574 20.9587 93.4934 20.9309 93.2437 20.8498C92.994 20.7687 92.764 20.6361 92.5686 20.4607C92.3732 20.2853 92.2168 20.0709 92.1093 19.8313C92.0019 19.5917 91.9459 19.3323 91.9448 19.0697ZM95.9439 18.5381V18.018L94.4247 18.1151C93.5679 18.1725 93.1793 18.4639 93.1793 19.0123C93.1793 19.5723 93.6651 19.8981 94.333 19.8981C94.5287 19.9179 94.7263 19.8981 94.9142 19.84C95.1021 19.7818 95.2764 19.6865 95.4267 19.5596C95.577 19.4327 95.7003 19.2769 95.7891 19.1014C95.878 18.9259 95.9306 18.7343 95.9439 18.5381Z" fill="black"/>
<path d="M98.7798 17.7157C98.7798 15.7499 99.7903 14.5046 101.362 14.5046C101.751 14.4867 102.137 14.5798 102.475 14.7731C102.813 14.9663 103.088 15.2518 103.27 15.596H103.362V12.1792H104.589V20.829H103.413V19.8461H103.316C103.12 20.188 102.835 20.4699 102.49 20.6612C102.146 20.8525 101.756 20.946 101.362 20.9315C99.7796 20.9316 98.7798 19.6862 98.7798 17.7157ZM100.048 17.7157C100.048 19.0352 100.67 19.8292 101.71 19.8292C102.745 19.8292 103.385 19.0238 103.385 17.7211C103.385 16.4245 102.738 15.6076 101.71 15.6076C100.677 15.6076 100.048 16.407 100.048 17.7157Z" fill="black"/>
<path d="M109.669 17.7157C109.63 17.3069 109.677 16.8944 109.806 16.5047C109.936 16.115 110.146 15.7567 110.422 15.4527C110.698 15.1488 111.035 14.906 111.411 14.7398C111.786 14.5736 112.192 14.4878 112.603 14.4878C113.014 14.4878 113.42 14.5736 113.795 14.7398C114.171 14.906 114.508 15.1488 114.784 15.4527C115.06 15.7567 115.27 16.115 115.4 16.5047C115.529 16.8944 115.576 17.3069 115.537 17.7157C115.577 18.125 115.53 18.538 115.401 18.9284C115.272 19.3187 115.062 19.6777 114.786 19.9822C114.51 20.2867 114.173 20.5301 113.797 20.6966C113.421 20.8631 113.014 20.9491 112.603 20.9491C112.192 20.9491 111.785 20.8631 111.409 20.6966C111.033 20.5301 110.696 20.2867 110.42 19.9822C110.144 19.6777 109.934 19.3187 109.805 18.9284C109.676 18.538 109.629 18.125 109.669 17.7157ZM114.274 17.7157C114.274 16.3672 113.668 15.5786 112.605 15.5786C111.538 15.5786 110.937 16.3672 110.937 17.7157C110.937 19.0751 111.538 19.8576 112.605 19.8576C113.668 19.8576 114.274 19.0696 114.274 17.7157Z" fill="black"/>
<path d="M117.185 14.6081H118.366V15.5964H118.458C118.614 15.2415 118.876 14.9439 119.209 14.7452C119.542 14.5466 119.928 14.4567 120.315 14.4881C120.617 14.4653 120.921 14.5109 121.204 14.6216C121.487 14.7323 121.741 14.9051 121.948 15.1273C122.154 15.3495 122.309 15.6154 122.399 15.9053C122.489 16.1952 122.513 16.5017 122.468 16.8019V20.8293H121.24V17.1103C121.24 16.1105 120.806 15.6133 119.898 15.6133C119.692 15.6037 119.487 15.6387 119.296 15.7158C119.106 15.793 118.934 15.9104 118.793 16.0602C118.652 16.2099 118.545 16.3884 118.479 16.5834C118.413 16.7784 118.391 16.9853 118.412 17.1899V20.8293H117.185V14.6081Z" fill="black"/>
<path d="M129.405 13.0596V14.6368H130.753V15.671H129.405V18.8699C129.405 19.5216 129.674 19.807 130.285 19.807C130.441 19.8065 130.598 19.797 130.753 19.7786V20.8013C130.533 20.8408 130.309 20.8618 130.085 20.8641C128.72 20.8641 128.176 20.3837 128.176 19.1843V15.6709H127.188V14.6367H128.176V13.0596H129.405Z" fill="black"/>
<path d="M132.431 12.1792H133.648V15.6075H133.745C133.908 15.2493 134.178 14.95 134.517 14.7506C134.857 14.5512 135.249 14.4613 135.642 14.4931C135.943 14.4767 136.244 14.527 136.523 14.6403C136.803 14.7537 137.054 14.9273 137.258 15.1488C137.463 15.3704 137.616 15.6343 137.707 15.9219C137.798 16.2094 137.824 16.5135 137.784 16.8124V20.829H136.555V17.1153C136.555 16.1216 136.092 15.6183 135.225 15.6183C135.014 15.601 134.802 15.63 134.603 15.7033C134.404 15.7766 134.224 15.8924 134.075 16.0427C133.926 16.1929 133.811 16.3739 133.739 16.5731C133.667 16.7722 133.64 16.9846 133.658 17.1955V20.829H132.431L132.431 12.1792Z" fill="black"/>
<path d="M144.943 19.1494C144.776 19.718 144.415 20.2098 143.922 20.5388C143.429 20.8679 142.837 21.0131 142.248 20.9492C141.838 20.9601 141.43 20.8816 141.054 20.7192C140.677 20.5568 140.341 20.3145 140.067 20.0089C139.794 19.7034 139.59 19.342 139.47 18.9499C139.351 18.5578 139.318 18.1443 139.374 17.7381C139.319 17.3307 139.353 16.9163 139.472 16.523C139.592 16.1297 139.794 15.7667 140.066 15.4585C140.338 15.1503 140.673 14.9042 141.049 14.7367C141.424 14.5692 141.831 14.4844 142.242 14.4879C143.973 14.4879 145.017 15.6705 145.017 17.6241V18.0525H140.624V18.1213C140.605 18.3496 140.634 18.5794 140.709 18.796C140.783 19.0126 140.903 19.2111 141.059 19.3789C141.215 19.5467 141.404 19.6801 141.615 19.7704C141.825 19.8608 142.052 19.9061 142.281 19.9036C142.575 19.9388 142.872 19.886 143.136 19.7517C143.4 19.6174 143.617 19.4077 143.761 19.1494L144.943 19.1494ZM140.624 17.1445H143.767C143.782 16.9357 143.754 16.726 143.683 16.5288C143.613 16.3316 143.502 16.1513 143.358 15.9996C143.214 15.8478 143.039 15.7279 142.846 15.6475C142.653 15.5671 142.445 15.5281 142.235 15.5329C142.023 15.5302 141.812 15.5701 141.616 15.6501C141.419 15.7302 141.24 15.8488 141.09 15.999C140.94 16.1492 140.821 16.3279 140.741 16.5247C140.661 16.7214 140.622 16.9321 140.624 17.1445Z" fill="black"/>
</g>
<defs>
<clipPath id="clip0_226_114474">
<rect width="165.327" height="55.2636" fill="white" transform="translate(0.205811 0.522461)"/>
</clipPath>
</defs>
</svg>
