<svg width="187" height="56" viewBox="0 0 187 56" fill="none" xmlns="http://www.w3.org/2000/svg">
<path d="M179.804 55.8843H7.06531C3.19596 55.8843 0.155762 52.8441 0.155762 48.9748V7.51746C0.155762 3.64811 3.19596 0.60791 7.06531 0.60791H179.804C183.673 0.60791 186.714 3.64811 186.714 7.51746V48.9748C186.714 52.8441 183.673 55.8843 179.804 55.8843Z" fill="white"/>
<path d="M179.804 1.71344C182.982 1.71344 185.608 4.33907 185.608 7.51746V48.9748C185.608 52.1531 182.982 54.7788 179.804 54.7788H7.06531C3.88692 54.7788 1.26129 52.1531 1.26129 48.9748V7.51746C1.26129 4.33907 3.88692 1.71344 7.06531 1.71344H179.804ZM179.804 0.60791H7.06531C3.19596 0.60791 0.155762 3.7863 0.155762 7.51746V48.9748C0.155762 52.8441 3.19596 55.8843 7.06531 55.8843H179.804C183.673 55.8843 186.714 52.8441 186.714 48.9748V7.51746C186.714 3.7863 183.673 0.60791 179.804 0.60791Z" fill="black"/>
<path d="M65.6582 14.7039C65.6582 15.8094 65.3818 16.7767 64.6908 17.4677C63.8617 18.2968 62.8943 18.7114 61.6506 18.7114C60.4069 18.7114 59.4396 18.2968 58.6104 17.4677C57.7813 16.6385 57.3667 15.6712 57.3667 14.4275C57.3667 13.1838 57.7813 12.2164 58.6104 11.3873C59.4396 10.5581 60.4069 10.1436 61.6506 10.1436C62.2034 10.1436 62.7561 10.2817 63.3089 10.5581C63.8617 10.8345 64.2762 11.1109 64.5526 11.5255L63.8617 12.2164C63.3089 11.5255 62.618 11.2491 61.6506 11.2491C60.8215 11.2491 59.9923 11.5255 59.4396 12.2164C58.7486 12.7692 58.4722 13.5983 58.4722 14.5657C58.4722 15.533 58.7486 16.3621 59.4396 16.9149C60.1305 17.4677 60.8215 17.8822 61.6506 17.8822C62.618 17.8822 63.3089 17.6059 63.9999 16.9149C64.4144 16.5003 64.6908 15.9476 64.6908 15.2566H61.6506V14.1511H65.6582V14.7039ZM72.0149 11.2491H68.2838V13.8747H71.7386V14.842H68.2838V17.4677H72.0149V18.5732H67.1783V10.2817H72.0149V11.2491ZM76.5752 18.5732H75.4697V11.2491H73.1205V10.2817H78.9245V11.2491H76.5752V18.5732ZM82.932 18.5732V10.2817H84.0376V18.5732H82.932ZM88.736 18.5732H87.6305V11.2491H85.2813V10.2817H90.9471V11.2491H88.5979V18.5732H88.736ZM101.864 17.4677C101.035 18.2968 100.068 18.7114 98.824 18.7114C97.5803 18.7114 96.6129 18.2968 95.7838 17.4677C94.9546 16.6385 94.5401 15.6712 94.5401 14.4275C94.5401 13.1838 94.9546 12.2164 95.7838 11.3873C96.6129 10.5581 97.5803 10.1436 98.824 10.1436C100.068 10.1436 101.035 10.5581 101.864 11.3873C102.693 12.2164 103.108 13.1838 103.108 14.4275C103.108 15.6712 102.693 16.6385 101.864 17.4677ZM96.6129 16.7767C97.1657 17.3295 97.9948 17.7441 98.824 17.7441C99.6531 17.7441 100.482 17.4677 101.035 16.7767C101.588 16.224 102.002 15.3948 102.002 14.4275C102.002 13.4601 101.726 12.631 101.035 12.0782C100.482 11.5255 99.6531 11.1109 98.824 11.1109C97.9948 11.1109 97.1657 11.3873 96.6129 12.0782C96.0602 12.631 95.6456 13.4601 95.6456 14.4275C95.6456 15.3948 95.922 16.224 96.6129 16.7767ZM104.628 18.5732V10.2817H105.872L109.879 16.7767V10.2817H110.985V18.5732H109.879L105.595 11.8018V18.5732H104.628Z" fill="black" stroke="black" stroke-width="0.276382" stroke-miterlimit="10"/>
<path d="M94.264 30.7337C90.9474 30.7337 88.3217 33.2212 88.3217 36.676C88.3217 39.9925 90.9474 42.6182 94.264 42.6182C97.5805 42.6182 100.206 40.1307 100.206 36.676C100.206 33.083 97.5805 30.7337 94.264 30.7337ZM94.264 40.1307C92.4675 40.1307 90.9474 38.6106 90.9474 36.5378C90.9474 34.4649 92.4675 32.9448 94.264 32.9448C96.0604 32.9448 97.5805 34.3267 97.5805 36.5378C97.5805 38.6106 96.0604 40.1307 94.264 40.1307ZM81.4122 30.7337C78.0956 30.7337 75.47 33.2212 75.47 36.676C75.47 39.9925 78.0956 42.6182 81.4122 42.6182C84.7288 42.6182 87.3544 40.1307 87.3544 36.676C87.3544 33.083 84.7288 30.7337 81.4122 30.7337ZM81.4122 40.1307C79.6157 40.1307 78.0956 38.6106 78.0956 36.5378C78.0956 34.4649 79.6157 32.9448 81.4122 32.9448C83.2087 32.9448 84.7288 34.3267 84.7288 36.5378C84.7288 38.6106 83.2087 40.1307 81.4122 40.1307ZM66.073 32.5302V35.0177H72.0152C71.877 36.3996 71.3243 37.5051 70.6333 38.1961C69.8042 39.0252 68.4222 39.9925 66.073 39.9925C62.3418 39.9925 59.578 37.0905 59.578 33.3594C59.578 29.6282 62.48 26.7262 66.073 26.7262C68.0077 26.7262 69.5278 27.5554 70.6333 28.5227L72.4298 26.7262C70.9097 25.3443 68.975 24.2388 66.2112 24.2388C61.2363 24.2388 56.9524 28.3845 56.9524 33.3594C56.9524 38.3342 61.2363 42.48 66.2112 42.48C68.975 42.48 70.9097 41.6508 72.568 39.8543C74.2263 38.1961 74.779 35.8468 74.779 34.0503C74.779 33.4976 74.779 32.9448 74.6408 32.5302H66.073ZM128.812 34.4649C128.259 33.083 126.877 30.7337 123.837 30.7337C120.797 30.7337 118.309 33.083 118.309 36.676C118.309 39.9925 120.797 42.6182 124.113 42.6182C126.739 42.6182 128.397 40.9599 128.95 39.9925L127.015 38.6106C126.324 39.578 125.495 40.2689 124.113 40.2689C122.731 40.2689 121.902 39.7162 121.211 38.4724L129.088 35.1559L128.812 34.4649ZM120.797 36.3996C120.797 34.1885 122.593 32.9448 123.837 32.9448C124.804 32.9448 125.771 33.4976 126.048 34.1885L120.797 36.3996ZM114.302 42.0654H116.927V24.7915H114.302V42.0654ZM110.156 31.9775C109.465 31.2865 108.359 30.5956 106.978 30.5956C104.076 30.5956 101.312 33.2212 101.312 36.5378C101.312 39.8543 103.937 42.3418 106.978 42.3418C108.359 42.3418 109.465 41.6508 110.018 40.9599H110.156V41.789C110.156 44.0001 108.912 45.2438 106.978 45.2438C105.457 45.2438 104.352 44.1383 104.076 43.1709L101.864 44.1383C102.555 45.6584 104.214 47.593 107.116 47.593C110.156 47.593 112.643 45.7966 112.643 41.5126V31.0101H110.156V31.9775ZM107.116 40.1307C105.319 40.1307 103.799 38.6106 103.799 36.5378C103.799 34.4649 105.319 32.9448 107.116 32.9448C108.912 32.9448 110.294 34.4649 110.294 36.5378C110.294 38.6106 108.912 40.1307 107.116 40.1307ZM140.834 24.7915H134.616V42.0654H137.241V35.5704H140.834C143.736 35.5704 146.5 33.4976 146.5 30.181C146.5 26.8644 143.736 24.7915 140.834 24.7915ZM140.973 33.083H137.241V27.1408H140.973C142.907 27.1408 144.013 28.7991 144.013 30.0428C143.875 31.5629 142.769 33.083 140.973 33.083ZM156.864 30.5956C154.93 30.5956 152.995 31.4247 152.304 33.2212L154.653 34.1885C155.206 33.2212 156.035 32.9448 157.003 32.9448C158.385 32.9448 159.628 33.7739 159.766 35.1559V35.294C159.352 35.0177 158.246 34.6031 157.141 34.6031C154.653 34.6031 152.166 35.985 152.166 38.4724C152.166 40.8217 154.239 42.3418 156.45 42.3418C158.246 42.3418 159.076 41.5126 159.766 40.6835H159.905V42.0654H162.392V35.4322C162.116 32.392 159.766 30.5956 156.864 30.5956ZM156.588 40.1307C155.759 40.1307 154.515 39.7162 154.515 38.6106C154.515 37.2287 156.035 36.8141 157.279 36.8141C158.385 36.8141 158.937 37.0905 159.628 37.3669C159.352 39.0252 157.97 40.1307 156.588 40.1307ZM171.098 31.0101L168.196 38.4724H168.058L165.018 31.0101H162.254L166.814 41.5126L164.189 47.3167H166.814L173.862 31.0101H171.098ZM147.882 42.0654H150.508V24.7915H147.882V42.0654Z" fill="black"/>
<path d="M14.5276 10.9727C14.113 11.3872 13.9749 12.0782 13.9749 12.9073V43.4475C13.9749 44.2767 14.2512 44.9676 14.6658 45.3822L14.804 45.5204L31.9397 28.3847V28.1083L14.5276 10.9727Z" fill="url(#paint0_linear_226_114509)"/>
<path d="M37.4671 34.1886L31.8013 28.5228V28.1082L37.4671 22.4424L37.6053 22.5806L44.3766 26.4499C46.3113 27.5554 46.3113 29.3519 44.3766 30.4575L37.4671 34.1886Z" fill="url(#paint1_linear_226_114509)"/>
<path d="M37.6055 34.0501L31.8015 28.2461L14.5276 45.52C15.2185 46.2109 16.1859 46.2109 17.4296 45.6582L37.6055 34.0501Z" fill="url(#paint2_linear_226_114509)"/>
<path d="M37.6055 22.4422L17.4296 10.9723C16.1859 10.2814 15.2185 10.4196 14.5276 11.1105L31.8015 28.2462L37.6055 22.4422Z" fill="url(#paint3_linear_226_114509)"/>
<path opacity="0.2" d="M37.4673 33.9121L17.4296 45.2438C16.3241 45.9347 15.3567 45.7965 14.6658 45.2438L14.5276 45.382L14.6658 45.5201C15.3567 46.0729 16.3241 46.2111 17.4296 45.5201L37.4673 33.9121Z" fill="black"/>
<path opacity="0.12" d="M14.5276 45.2436C14.113 44.829 13.9749 44.1381 13.9749 43.3089V43.4471C13.9749 44.2762 14.2512 44.9672 14.6658 45.3818V45.2436H14.5276ZM44.3769 30.0426L37.4673 33.9119L37.6055 34.0501L44.3769 30.1808C45.3442 29.628 45.7588 28.937 45.7588 28.2461C45.7588 28.937 45.206 29.4898 44.3769 30.0426Z" fill="black"/>
<path opacity="0.25" d="M17.4296 11.1111L44.3769 26.4503C45.206 27.0031 45.7588 27.5558 45.7588 28.2468C45.7588 27.5558 45.3442 26.8649 44.3769 26.3121L17.4296 10.9729C15.495 9.86737 13.9749 10.6965 13.9749 12.9076V13.0458C13.9749 10.9729 15.495 10.0056 17.4296 11.1111Z" fill="white"/>
<defs>
<linearGradient id="paint0_linear_226_114509" x1="30.2814" y1="12.6448" x2="7.0888" y2="35.836" gradientUnits="userSpaceOnUse">
<stop stop-color="#00A0FF"/>
<stop offset="0.007" stop-color="#00A1FF"/>
<stop offset="0.26" stop-color="#00BEFF"/>
<stop offset="0.512" stop-color="#00D2FF"/>
<stop offset="0.76" stop-color="#00DFFF"/>
<stop offset="1" stop-color="#00E3FF"/>
</linearGradient>
<linearGradient id="paint1_linear_226_114509" x1="46.9111" y1="28.2478" x2="13.473" y2="28.2478" gradientUnits="userSpaceOnUse">
<stop stop-color="#FFE000"/>
<stop offset="0.409" stop-color="#FFBD00"/>
<stop offset="0.775" stop-color="#FFA500"/>
<stop offset="1" stop-color="#FF9C00"/>
</linearGradient>
<linearGradient id="paint2_linear_226_114509" x1="34.4644" y1="31.419" x2="3.0149" y2="62.8685" gradientUnits="userSpaceOnUse">
<stop stop-color="#FF3A44"/>
<stop offset="1" stop-color="#C31162"/>
</linearGradient>
<linearGradient id="paint3_linear_226_114509" x1="10.2395" y1="0.851228" x2="24.2839" y2="14.8956" gradientUnits="userSpaceOnUse">
<stop stop-color="#32A071"/>
<stop offset="0.069" stop-color="#2DA771"/>
<stop offset="0.476" stop-color="#15CF74"/>
<stop offset="0.801" stop-color="#06E775"/>
<stop offset="1" stop-color="#00F076"/>
</linearGradient>
</defs>
</svg>
